<?xml version="1.0" encoding="UTF-8" standalone="no"?>
<!-- Created with Inkscape (http://www.inkscape.org/) -->

<svg
   width="27.36953mm"
   height="28.34877mm"
   viewBox="0 0 27.36953 28.34877"
   version="1.1"
   id="svg3742"
   inkscape:version="1.1.1 (c3084ef, 2021-09-22)"
   sodipodi:docname="logo.svg"
   xmlns:inkscape="http://www.inkscape.org/namespaces/inkscape"
   xmlns:sodipodi="http://sodipodi.sourceforge.net/DTD/sodipodi-0.dtd"
   xmlns="http://www.w3.org/2000/svg"
   xmlns:svg="http://www.w3.org/2000/svg">
  <sodipodi:namedview
     id="namedview3744"
     pagecolor="#505050"
     bordercolor="#eeeeee"
     borderopacity="1"
     inkscape:pageshadow="0"
     inkscape:pageopacity="0"
     inkscape:pagecheckerboard="0"
     inkscape:document-units="mm"
     showgrid="false"
     inkscape:zoom="3.6440298"
     inkscape:cx="39.653902"
     inkscape:cy="52.826133"
     inkscape:window-width="1312"
     inkscape:window-height="969"
     inkscape:window-x="154"
     inkscape:window-y="390"
     inkscape:window-maximized="0"
     inkscape:current-layer="layer1" />
  <defs
     id="defs3739">
    <marker
       style="overflow:visible"
       id="Arrow1Lstart"
       refX="0"
       refY="0"
       orient="auto"
       inkscape:stockid="Arrow1Lstart"
       inkscape:isstock="true">
      <path
         transform="matrix(0.8,0,0,0.8,10,0)"
         style="fill:context-stroke;fill-rule:evenodd;stroke:context-stroke;stroke-width:1pt"
         d="M 0,0 5,-5 -12.5,0 5,5 Z"
         id="path4662" />
    </marker>
  </defs>
  <g
     inkscape:label="Layer 1"
     inkscape:groupmode="layer"
     id="layer1"
     transform="translate(-93.714448,-112.22618)">
    <path
       d="m 94.371281,122.40643 c -0.0031,0.0186 -0.0072,0.0382 -0.01344,0.0568 0.0062,-0.0186 0.01035,-0.0382 0.01344,-0.0568 z m 0.0041,-0.0228 c 0,0.0341 0.0041,0.15089 0.04547,0.31006 0.08475,0.31936 0.304893,0.60876 0.604616,0.79169 l 11.752253,7.15304 c -0.0196,-0.11576 -0.0279,-0.23461 -0.0279,-0.35655 0,-1.15137 0.49818,-1.94615 1.66811,-2.65928 l 11.18693,-6.81302 c 0.1478,-0.0899 0.1633,-0.23873 0.1633,-0.29869 0,-0.06 -0.0155,-0.20878 -0.1633,-0.29869 l -11.88248,-7.23677 -12.007532,7.31223 c -0.975651,0.59426 -1.337386,1.15237 -1.337386,2.05775 0,0.0124 -0.0011,0.0259 -0.0021,0.0382 z m 13.912319,9.75857 c -0.24596,0 -0.48369,-0.0661 -0.70382,-0.2005 -0.0444,-0.0279 -0.0868,-0.0558 -0.12817,-0.0889 L 94.6958,124.0859 c -0.454752,-0.2749 -0.777213,-0.70485 -0.910539,-1.20613 -0.06511,-0.25114 -0.07855,-0.42166 -0.06718,-0.53742 0.0011,-1.15033 0.499195,-1.94408 1.668116,-2.65618 l 12.171863,-7.41349 c 0.10128,-0.062 0.22635,-0.062 0.32866,0 l 12.04786,7.33806 c 0.30911,0.18809 0.493,0.52501 0.493,0.90019 0,0.37518 -0.18389,0.71313 -0.493,0.90019 l -11.18693,6.81302 c -0.97668,0.59532 -1.33842,1.1524 -1.33842,2.05778 0,0.41134 0.16021,0.78962 0.41757,0.99631 0.005,0.005 0.0124,0.009 0.0176,0.0145 0.0227,0.0165 0.0455,0.032 0.0693,0.0465 0.26148,0.1602 0.57152,0.13951 0.89606,-0.0579 l 11.31506,-6.89155 -0.91879,-0.63151 c -0.15195,-0.10335 -0.19431,-0.31935 -0.0961,-0.48059 0.10025,-0.16018 0.30385,-0.20566 0.4568,-0.10025 l 1.36737,0.93948 c 0.096,0.0661 0.15293,0.17984 0.14975,0.30075 -0.003,0.12094 -0.0651,0.23151 -0.16536,0.29147 l -11.77797,7.17373 c -0.28422,0.17362 -0.57362,0.25939 -0.85268,0.25939 z"
       fill="#7342d6"
       id="path3630"
       style="fill:#7342d6;fill-opacity:1;stroke:none;stroke-width:1.20306;stroke-miterlimit:4;stroke-dasharray:none;stroke-opacity:1;paint-order:markers fill stroke" />
    <path
       d="m 113.7944,136.51915 c -0.11369,0 -0.22426,-0.0619 -0.28525,-0.17357 -0.091,-0.16536 -0.0372,-0.37835 0.12092,-0.47439 l 6.4947,-3.95632 -0.91882,-0.63045 c -0.15192,-0.10541 -0.19428,-0.32038 -0.0961,-0.48162 0.10025,-0.16124 0.30385,-0.20669 0.45681,-0.10128 l 1.36734,0.94051 c 0.096,0.0661 0.15293,0.17984 0.14975,0.30075 -0.003,0.12092 -0.0651,0.23048 -0.16536,0.29147 l -6.95966,4.2386 c -0.0517,0.0331 -0.10853,0.0463 -0.16433,0.0463 z"
       fill="#7342d6"
       id="path3632"
       style="fill:#7342d6;fill-opacity:1;stroke:none;stroke-width:1.20306;stroke-miterlimit:4;stroke-dasharray:none;stroke-opacity:1;paint-order:markers fill stroke" />
    <path
       d="m 94.371281,129.93256 c -0.0031,0.0186 -0.0072,0.0372 -0.01344,0.0548 0.0062,-0.0176 0.01035,-0.0362 0.01344,-0.0548 z m 13.267409,9.50441 c -0.0568,0 -0.1137,-0.0156 -0.16537,-0.0466 l -12.777512,-7.77836 c -0.454752,-0.27699 -0.777213,-0.7059 -0.910539,-1.20819 -0.06511,-0.25014 -0.07855,-0.41963 -0.06718,-0.53641 0.0011,-1.14824 0.497128,-1.94199 1.659847,-2.65203 l 0.553972,-0.37931 c 0.152961,-0.10437 0.3576,-0.0589 0.456824,0.10129 0.09819,0.16227 0.0558,0.37724 -0.09716,0.48162 l -0.561205,0.38446 c -0.0052,0.003 -0.01035,0.006 -0.0155,0.009 -0.975651,0.59428 -1.337387,1.15239 -1.337387,2.05774 0,0.0124 -0.0011,0.0248 -0.0021,0.0383 0,0.0331 0.0041,0.15192 0.04547,0.30901 0.08475,0.32144 0.304893,0.60978 0.604616,0.79168 l 12.778544,7.77846 c 0.15711,0.096 0.21084,0.30904 0.11885,0.4744 -0.0599,0.11245 -0.17156,0.17462 -0.28422,0.17462 z"
       fill="#7342d6"
       id="path3634"
       style="fill:#7342d6;fill-opacity:1;stroke:none;stroke-width:1.20306;stroke-miterlimit:4;stroke-dasharray:none;stroke-opacity:1;paint-order:markers fill stroke" />
    <path
       d="m 111.54438,140.57495 c -0.0558,0 -0.11266,-0.0156 -0.16227,-0.0455 -0.10334,-0.0611 -0.16742,-0.17674 -0.16742,-0.30189 v -2.06798 l -2.07637,1.24936 c -0.53123,0.32358 -1.08416,0.34422 -1.55443,0.0579 -0.51366,-0.31406 -0.83405,-0.94985 -0.83405,-1.65867 0,-1.15358 0.49816,-1.94839 1.66812,-2.66044 l 11.1869,-6.81405 c 0.1478,-0.0889 0.1633,-0.2377 0.1633,-0.29766 0,-0.061 -0.0155,-0.20875 -0.1633,-0.29869 -0.15708,-0.0961 -0.21084,-0.30903 -0.11988,-0.47543 0.0899,-0.16536 0.2925,-0.22219 0.44958,-0.1271 0.30914,0.18809 0.49302,0.52501 0.49302,0.90122 0,0.37518 -0.18388,0.7121 -0.49302,0.90022 l -11.1869,6.81405 c -0.97668,0.59315 -1.33842,1.15142 -1.33842,2.05788 0,0.45455 0.1974,0.87021 0.50435,1.05727 0.26148,0.15902 0.57155,0.13944 0.89606,-0.059 l 2.57143,-1.54622 c 0.10232,-0.0619 0.22739,-0.0609 0.32867,0.001 0.10128,0.0619 0.16433,0.1778 0.16433,0.30083 v 2.05263 l 1.5906,-1.00568 v -2.43707 c 0,-0.48165 -0.24702,-0.9302 -0.64389,-1.16893 -0.15918,-0.0961 -0.21291,-0.308 -0.12301,-0.4744 0.0899,-0.16743 0.29147,-0.22429 0.44858,-0.1292 0.60253,0.36174 0.97771,1.0418 0.97771,1.77253 v 2.63445 c 0,0.12303 -0.061,0.23575 -0.16124,0.29766 l -2.24895,1.42108 c -0.0527,0.0331 -0.11163,0.0497 -0.1695,0.0497 z"
       fill="#7342d6"
       id="path3636"
       style="fill:#7342d6;fill-opacity:1;stroke:none;stroke-width:1.20306;stroke-miterlimit:4;stroke-dasharray:none;stroke-opacity:1;paint-order:markers fill stroke" />
    <path
       d="m 105.66463,126.25324 c -0.0537,0 -0.10851,-0.0145 -0.15915,-0.0445 L 95.391363,120.2908 c -0.159162,-0.093 -0.21704,-0.30488 -0.128156,-0.47231 0.08682,-0.16849 0.287319,-0.22945 0.447516,-0.13644 l 10.113077,5.91902 c 0.16021,0.093 0.21807,0.3049 0.1292,0.47336 -0.06,0.11369 -0.17262,0.17881 -0.28837,0.17881 z"
       fill="#7342d6"
       id="path3638"
       style="fill:#7342d6;fill-opacity:1;stroke:none;stroke-width:1.20306;stroke-miterlimit:4;stroke-dasharray:none;stroke-opacity:1;paint-order:markers fill stroke" />
  </g>
</svg>
